<svg width="62" height="66" viewBox="0 0 62 66" fill="none" xmlns="http://www.w3.org/2000/svg">
<path d="M33.4244 11.4204L40.7471 16.19C40.6102 16.5167 40.5418 16.8434 40.5418 17.1701C40.5418 17.2354 40.5418 17.2354 40.5418 17.3007L31.3029 20.3062C30.9608 19.9142 30.5501 19.5875 30.0711 19.3262L31.5082 12.1391C32.3295 12.0084 32.9454 11.8124 33.4244 11.4204Z" fill="white"/>
<path d="M25.2811 21.5483L13.3733 22.5283C13.2364 22.2016 13.0995 21.9403 12.8258 21.6789L16.7266 16.3213C17.0688 16.452 17.411 16.5173 17.7531 16.5173C18.4375 16.5173 19.0534 16.3213 19.6009 15.9946L25.4864 20.8949C25.418 21.0909 25.2811 21.2869 25.2811 21.5483Z" fill="white"/>
<path d="M21.1752 13.1845C21.1752 13.1191 21.1752 13.1191 21.1752 13.0538L28.4978 10.7017C28.84 11.0937 29.2506 11.4857 29.7297 11.6817L28.2925 18.8688C27.745 18.9341 27.266 19.0648 26.7869 19.3261L20.9015 14.4259C21.1068 14.1645 21.1752 13.7072 21.1752 13.1845Z" fill="white"/>
<path d="M25.4162 23.3774C25.4846 23.5081 25.553 23.6388 25.6215 23.7695L17.6145 31.8059C17.1354 31.5446 16.6564 31.4139 16.0404 31.4139C15.8351 31.4139 15.6298 31.4139 15.4245 31.4792L12.4818 26.0563C12.9608 25.5989 13.303 25.0109 13.4399 24.3575L25.4162 23.3774Z" fill="white"/>
<path d="M1.80798 19.2612C1.80798 19.2612 2.01329 18.4771 2.08173 18.1504C2.15016 17.8238 2.4239 16.9744 2.49234 16.909C7.21441 3.77628 22.544 -1.38536 34.5203 0.313408C43.417 1.62015 50.0552 5.80173 53.6139 12.2701C54.4351 13.7729 55.051 15.2756 55.4617 16.909L55.7354 17.8891C55.7354 17.8891 55.7354 17.9544 55.7354 18.0198L55.9407 19.1958C56.2144 21.156 56.2829 23.1814 56.0091 25.3375C56.0091 25.3375 56.0091 25.4029 56.0091 25.4682C56.0091 25.5989 56.0091 25.8602 56.0091 26.0562C56.0091 26.8403 56.2144 27.6243 56.5566 28.343L61.5524 38.405C61.9631 39.2543 61.8946 40.2997 61.3471 41.0838C60.7996 41.8678 59.91 42.3905 58.8834 42.3905H56.146V55.5233C56.146 57.4834 54.572 58.9862 52.5189 58.9862L44.5804 59.1168C43.6907 59.1168 43.0063 59.7702 43.0063 60.6196V64.2131C43.0063 64.9318 42.3904 65.4545 41.7061 65.4545H13.0315C12.6208 65.4545 12.2102 65.2585 11.9365 64.9318C11.7312 64.6052 11.6627 64.1478 11.7996 63.7558L12.0049 63.2984C14.2633 57.9408 14.6055 53.3018 12.8946 49.5123C11.9365 47.2908 10.5678 46.0494 9.60966 45.2L9.33592 44.9387C1.73954 37.4249 -0.861015 28.8657 1.80798 19.2612ZM10.1571 26.971C10.3625 26.971 10.5678 26.971 10.7731 26.9056L13.7158 32.3286C13.0999 32.9166 12.6893 33.766 12.6893 34.6807C12.6893 36.5102 14.1949 37.9476 16.1111 37.9476C18.0273 37.9476 19.5329 36.5102 19.5329 34.6807C19.5329 34.0927 19.3275 33.57 19.0538 33.0473L27.0608 25.0762C27.5398 25.3375 28.0189 25.4682 28.6348 25.4682C30.551 25.4682 32.0566 24.0308 32.0566 22.2014C32.0566 22.136 32.0566 22.136 32.0566 22.0707L41.2954 19.0652C41.9114 19.9146 42.9379 20.4372 44.1013 20.4372C46.0175 20.4372 47.5231 18.9998 47.5231 17.1704C47.5231 15.341 46.0175 13.9035 44.1013 13.9035C43.2801 13.9035 42.5273 14.1649 41.9798 14.6222L34.6572 9.85263C34.794 9.52595 34.8625 9.19926 34.8625 8.87257C34.8625 7.04313 33.3569 5.60572 31.4407 5.60572C29.5245 5.60572 28.0189 7.04313 28.0189 8.87257C28.0189 8.93791 28.0189 8.93791 28.0189 9.00325L20.6963 11.3554C20.0803 10.506 19.0538 9.9833 17.8904 9.9833C15.9742 9.9833 14.4686 11.4207 14.4686 13.2502C14.4686 14.0342 14.7423 14.7529 15.2214 15.2756L11.3206 20.6333C10.9784 20.5026 10.6362 20.4372 10.294 20.4372C8.37782 20.4372 6.87223 21.8747 6.87223 23.7041C6.73536 25.5335 8.30938 26.971 10.1571 26.971Z" fill="white"/>
</svg>
